<svg width="150" height="22" viewBox="0 0 150 22" fill="none" xmlns="http://www.w3.org/2000/svg">
<g id="Union">
<path d="M97.967 0.438786C99.2765 0.438786 100.244 1.49206 100.244 2.68767C100.244 3.94021 99.2765 4.87962 97.967 4.87962C96.6291 4.87962 95.6897 3.94021 95.6897 2.68767C95.6897 1.49206 96.6291 0.438786 97.967 0.438786Z" fill="white"/>
<path d="M113.229 20.5079L112.147 17.3766C111.407 17.7751 110.439 18.0598 109.785 18.0598C108.532 18.0598 107.706 17.3196 107.706 15.6116V10.0037H115.153V15.8963C115.153 19.7963 117.374 21.5612 120.733 21.5612C121.928 21.5612 122.953 21.305 124.433 20.5079L123.352 17.3766C122.612 17.7751 121.644 18.0598 120.989 18.0598C119.736 18.0598 118.911 17.3196 118.911 15.6116V10.0037H123.551V6.92924H118.911V2.63074H115.153V6.92924H107.706V2.63074H103.949V6.92924H100.903V10.0037H103.949V15.8963C103.949 19.7963 106.169 21.5612 109.528 21.5612C110.724 21.5612 111.749 21.305 113.229 20.5079Z" fill="white"/>
<path fill-rule="evenodd" clip-rule="evenodd" d="M137.965 11.2703L137.325 10.1609C135.038 6.48478 130.737 5.58236 127.458 7.47541C123.932 9.51079 122.635 13.8102 124.869 17.6807C127.104 21.5512 131.462 22.5522 134.938 20.5453C137.625 18.9939 139.108 16.4945 138.712 13.3043L135.447 14.3675C135.428 16.3837 134.291 17.2044 133.33 17.7595C131.826 18.6278 129.942 18.269 128.597 16.679L137.965 11.2703ZM127.372 14.3293C126.884 12.5731 127.862 11.0222 129.095 10.3105C130.401 9.55614 131.983 9.56322 133.313 10.899L127.372 14.3293Z" fill="white"/>
<path d="M150 6.84383C149.658 6.72997 149.374 6.72997 149.004 6.72997C146.698 6.72997 145.047 7.86864 143.908 9.51972V6.92924H140.15V21.1342H143.908V16.551C143.908 12.5941 145.502 10.4591 148.975 10.4591H149.801L150 6.84383Z" fill="white"/>
<path d="M94.6731 6.84383C94.3315 6.72997 94.0468 6.72997 93.6767 6.72997C91.3709 6.72997 89.7198 7.86864 88.5811 9.51972V6.92924H84.8235V21.1342H88.5811V16.551C88.5811 12.5941 90.1753 10.4591 93.6483 10.4591H94.4738L94.6731 6.84383Z" fill="white"/>
<path fill-rule="evenodd" clip-rule="evenodd" d="M69.6863 6.58763C73.8424 6.58763 77.3439 9.57666 77.3439 14.046C77.3439 18.5153 73.8424 21.5043 69.6863 21.5043C65.4447 21.5043 61.9433 18.5153 61.9433 14.046C61.9433 9.57666 65.4447 6.58763 69.6863 6.58763ZM69.6863 18.2875C71.6505 18.2875 73.7001 16.6934 73.7001 14.046C73.7001 11.3985 71.6505 9.80439 69.6863 9.80439C67.6366 9.80439 65.587 11.3985 65.587 14.046C65.587 16.6934 67.6366 18.2875 69.6863 18.2875Z" fill="white"/>
<path d="M62.0051 6.84383C61.6635 6.72997 61.3788 6.72997 61.0088 6.72997C58.7029 6.72997 57.0519 7.86864 55.9132 9.51972V6.92924H52.1556V21.1342H55.9132V16.551C55.9132 12.5941 57.5073 10.4591 60.9803 10.4591H61.8058L62.0051 6.84383Z" fill="white"/>
<path fill-rule="evenodd" clip-rule="evenodd" d="M43.7038 6.50223C47.4614 6.50223 49.938 8.40951 49.938 11.854V21.1342H46.3512V19.9671C45.3833 20.9065 43.96 21.5612 42.0242 21.5612C38.779 21.5612 36.6155 19.7109 36.6155 16.9211C36.6155 14.1883 38.6651 12.3664 42.252 12.3664H46.3512V12.1387C46.3512 10.7153 45.3833 9.74746 43.9315 9.74746C42.2235 9.74746 41.2556 10.4022 40.971 11.8255L37.3841 11.1139C37.925 8.35258 40.4586 6.50223 43.7038 6.50223ZM42.622 18.5722C44.6147 18.5722 46.3512 17.2058 46.3512 15.3839V15.2131H42.195C40.9994 15.2131 40.2024 15.8678 40.2024 16.8357C40.2024 17.889 41.1702 18.5722 42.622 18.5722Z" fill="white"/>
<path d="M31.4123 21.1342L37.3334 6.90077H33.2911L29.4196 16.551L25.5481 6.90077H21.5058L27.427 21.1342H31.4123Z" fill="white"/>
<path d="M19.9809 21.5612C17.1342 21.5612 15.2554 19.6824 15.2554 16.8642V0.638052H19.013V16.6364C19.013 17.462 19.6677 18.0313 20.6356 18.0313C21.0911 18.0313 21.8027 17.8605 22.4005 17.6328L23.0553 20.7926L23.0035 20.8166C22.2222 21.1797 21.4013 21.5612 19.9809 21.5612Z" fill="white"/>
<path fill-rule="evenodd" clip-rule="evenodd" d="M13.3225 11.854C13.3225 8.40951 10.8459 6.50223 7.08825 6.50223C3.84303 6.50223 1.30948 8.35258 0.768606 11.1139L4.35543 11.8255C4.6401 10.4022 5.60798 9.74746 7.31599 9.74746C8.7678 9.74746 9.73567 10.7153 9.73567 12.1387V12.3664H5.63644C2.04962 12.3664 0 14.1883 0 16.9211C0 19.7109 2.16348 21.5612 5.40871 21.5612C7.34446 21.5612 8.7678 20.9065 9.73567 19.9671V21.1342H13.3225V11.854ZM9.73567 15.3839C9.73567 17.2058 7.99919 18.5722 6.00651 18.5722C4.5547 18.5722 3.58683 17.889 3.58683 16.8357C3.58683 15.8678 4.3839 15.2131 5.57951 15.2131H9.73567V15.3839Z" fill="white"/>
<path d="M99.8458 21.1342H96.0882V6.92924H99.8458V21.1342Z" fill="white"/>
</g>
</svg>
