<svg width="28" height="28" viewBox="0 0 28 28" fill="none" xmlns="http://www.w3.org/2000/svg">
<g id="Logo Linkedin" clip-path="url(#clip0_4_6297)">
<path id="Vector" d="M23.5053 23.8017H19.5047V17.5365C19.5047 16.0425 19.4781 14.1192 17.424 14.1192C15.3404 14.1192 15.0216 15.747 15.0216 17.4277V23.8013H11.021V10.9174H14.8616V12.6781H14.9153C15.2997 12.0209 15.8551 11.4803 16.5224 11.1138C17.1896 10.7473 17.9438 10.5687 18.7046 10.5969C22.7594 10.5969 23.507 13.2641 23.507 16.7338L23.5053 23.8017ZM6.50708 9.15627C6.04792 9.15635 5.59903 9.02027 5.2172 8.76523C4.83537 8.51019 4.53777 8.14765 4.36198 7.72346C4.18619 7.29926 4.14012 6.83247 4.22962 6.38209C4.31911 5.93172 4.54016 5.518 4.86478 5.19326C5.1894 4.86851 5.60302 4.64732 6.05335 4.55766C6.50367 4.46799 6.97046 4.51389 7.39471 4.68953C7.81895 4.86517 8.18158 5.16268 8.43675 5.54443C8.69191 5.92618 8.82816 6.37502 8.82824 6.8342C8.82829 7.13908 8.76829 7.44099 8.65167 7.72269C8.53505 8.00438 8.36411 8.26035 8.14857 8.47598C7.93303 8.6916 7.67711 8.86266 7.39547 8.97938C7.11382 9.09611 6.81195 9.15621 6.50708 9.15627ZM8.50735 23.8017H4.50263V10.9174H8.50735V23.8017ZM25.4997 0.797738H2.49236C1.97016 0.791845 1.46696 0.99352 1.09337 1.35845C0.719782 1.72337 0.506373 2.22169 0.5 2.74391V25.8475C0.506155 26.37 0.719439 26.8686 1.09301 27.2339C1.46659 27.5992 1.9699 27.8013 2.49236 27.7957H25.4997C26.0232 27.8023 26.5279 27.6008 26.903 27.2355C27.278 26.8702 27.4928 26.371 27.5 25.8475V2.74224C27.4925 2.21899 27.2777 1.7201 26.9026 1.35519C26.5275 0.990268 26.023 0.789169 25.4997 0.79607" fill="white"/>
</g>
<defs>
<clipPath id="clip0_4_6297">
<rect width="27" height="27" fill="white" transform="translate(0.5 0.933594)"/>
</clipPath>
</defs>
</svg>
