<svg width="32" height="33" viewBox="0 0 32 33" fill="none" xmlns="http://www.w3.org/2000/svg">
<g id="Logo Behance" clip-path="url(#clip0_4_6301)">
<g id="Vector">
<path d="M9.62517 5.81392C10.4807 5.81392 11.3361 5.8961 12.1509 6.06046C12.8434 6.22481 13.4952 6.51244 14.1063 6.92334C14.6359 7.33424 15.084 7.86841 15.3691 8.48476C15.695 9.26547 15.858 10.0873 15.8173 10.9091C15.858 11.813 15.6136 12.717 15.1655 13.4977C14.6766 14.2373 13.9841 14.8126 13.2101 15.1824C14.31 15.47 15.2469 16.1686 15.858 17.0725C16.4691 18.0587 16.7542 19.2092 16.7542 20.3597C16.7542 21.3048 16.5913 22.2088 16.1839 23.0306C15.8173 23.7702 15.2877 24.3865 14.6766 24.9207C14.0248 25.4138 13.2508 25.7836 12.4768 25.989C11.662 26.2356 10.8066 26.3178 9.95107 26.3178H0.5V5.77283H9.62517V5.81392ZM9.05485 14.1141C9.70665 14.1552 10.3992 13.9497 10.9288 13.5388C11.4584 13.0868 11.7435 12.3883 11.662 11.6487C11.662 11.2378 11.5806 10.8269 11.4176 10.4571C11.2547 10.1694 11.051 9.9229 10.7658 9.75854C10.4807 9.59418 10.1548 9.42982 9.82886 9.38873C9.46222 9.30655 9.09559 9.30656 8.72895 9.30656H4.73669V14.1141H9.05485ZM9.29927 22.9073C9.70665 22.9073 10.114 22.8662 10.4807 22.784C10.8473 22.7019 11.1732 22.5375 11.4991 22.332C11.7843 22.1266 12.0287 21.839 12.1916 21.5102C12.3953 21.0993 12.4768 20.6474 12.4361 20.1954C12.5175 19.3325 12.1916 18.5107 11.5806 17.9354C10.9288 17.4424 10.1548 17.2369 9.34001 17.278H4.73669V22.9484H9.29927V22.9073Z" fill="white"/>
<path d="M22.7833 22.8251C23.4759 23.4415 24.3721 23.7702 25.2683 23.7291C26.0016 23.7291 26.6941 23.5237 27.2645 23.1128C27.7533 22.784 28.0792 22.332 28.2829 21.7979H31.6641C31.2975 23.3182 30.4012 24.6742 29.1791 25.6192C27.9977 26.441 26.5719 26.8108 25.1054 26.7698C24.0869 26.7698 23.0685 26.6054 22.0908 26.1945C21.2353 25.8247 20.4613 25.2905 19.8503 24.592C19.2392 23.8524 18.7503 23.0306 18.4244 22.1266C18.0578 21.0993 17.8949 20.031 17.9356 18.9627C17.9356 17.8943 18.0985 16.8671 18.4652 15.8398C19.4429 12.9636 22.1315 11.0323 25.1461 11.0734C26.246 11.0323 27.3052 11.32 28.2829 11.813C29.1384 12.3061 29.9124 12.9636 30.4827 13.7854C31.053 14.6482 31.5012 15.5933 31.7048 16.6206C31.9493 17.6889 32.0307 18.8394 31.99 19.9488H21.8871C21.7649 20.9761 22.0908 22.0033 22.7833 22.8251ZM27.183 14.977C26.6127 14.4017 25.8386 14.1141 25.0239 14.1552C24.4943 14.1552 23.9647 14.2373 23.5166 14.4839C23.15 14.6893 22.8241 14.977 22.5389 15.3057C22.2945 15.6344 22.1315 15.9631 22.0093 16.374C21.9279 16.7027 21.8464 17.0315 21.8464 17.3602H28.1199C28.0385 16.4973 27.7126 15.6755 27.183 14.977Z" fill="white"/>
<path d="M28.8532 7.16988H21.0316V9.18328H28.8532V7.16988Z" fill="white"/>
</g>
</g>
<defs>
<clipPath id="clip0_4_6301">
<rect width="31.5" height="31.5" fill="white" transform="translate(0.5 0.683594)"/>
</clipPath>
</defs>
</svg>
