<svg width="28" height="28" viewBox="0 0 28 28" fill="none" xmlns="http://www.w3.org/2000/svg">
<g id="Logo Instagram" clip-path="url(#clip0_4_6299)">
<path id="Icon" d="M14 3.36697C17.6045 3.36697 18.032 3.38047 19.4563 3.44572C23.1147 3.61222 24.8236 5.34809 24.9901 8.97959C25.0554 10.4027 25.0677 10.8302 25.0677 14.4347C25.0677 18.0403 25.0542 18.4667 24.9901 19.8898C24.8225 23.518 23.1181 25.2572 19.4563 25.4237C18.032 25.489 17.6068 25.5025 14 25.5025C10.3955 25.5025 9.968 25.489 8.54488 25.4237C4.87738 25.2561 3.1775 23.5123 3.011 19.8887C2.94575 18.4656 2.93225 18.0392 2.93225 14.4336C2.93225 10.8291 2.94688 10.4027 3.011 8.97847C3.17863 5.34809 4.883 3.61109 8.54488 3.44459C9.96912 3.38047 10.3955 3.36697 14 3.36697ZM14 0.933594C10.3336 0.933594 9.87463 0.949344 8.43463 1.01459C3.53188 1.23959 0.807125 3.95984 0.582125 8.86709C0.51575 10.3082 0.5 10.7672 0.5 14.4336C0.5 18.1 0.51575 18.5601 0.581 20.0001C0.806 24.9028 3.52625 27.6276 8.4335 27.8526C9.87463 27.9178 10.3336 27.9336 14 27.9336C17.6664 27.9336 18.1265 27.9178 19.5665 27.8526C24.4648 27.6276 27.1963 24.9073 27.4179 20.0001C27.4842 18.5601 27.5 18.1 27.5 14.4336C27.5 10.7672 27.4842 10.3082 27.419 8.86822C27.1985 3.96997 24.4749 1.24072 19.5676 1.01572C18.1265 0.949344 17.6664 0.933594 14 0.933594ZM14 7.50134C10.1716 7.50134 7.06775 10.6052 7.06775 14.4336C7.06775 18.262 10.1716 21.367 14 21.367C17.8284 21.367 20.9323 18.2631 20.9323 14.4336C20.9323 10.6052 17.8284 7.50134 14 7.50134ZM14 18.9336C11.5149 18.9336 9.5 16.9198 9.5 14.4336C9.5 11.9485 11.5149 9.93359 14 9.93359C16.4851 9.93359 18.5 11.9485 18.5 14.4336C18.5 16.9198 16.4851 18.9336 14 18.9336ZM21.2068 5.60797C20.3113 5.60797 19.5856 6.33359 19.5856 7.22797C19.5856 8.12234 20.3113 8.84797 21.2068 8.84797C22.1011 8.84797 22.8256 8.12234 22.8256 7.22797C22.8256 6.33359 22.1011 5.60797 21.2068 5.60797Z" fill="white"/>
</g>
<defs>
<clipPath id="clip0_4_6299">
<rect width="27" height="27" fill="white" transform="translate(0.5 0.933594)"/>
</clipPath>
</defs>
</svg>
